<?xml version="1.0" standalone="no"?><!DOCTYPE svg PUBLIC "-//W3C//DTD SVG 1.1//EN" "http://www.w3.org/Graphics/SVG/1.1/DTD/svg11.dtd"><svg t="1678078428605" class="icon" viewBox="0 0 1024 1024" version="1.1" xmlns="http://www.w3.org/2000/svg" p-id="12838" xmlns:xlink="http://www.w3.org/1999/xlink" width="200" height="200"><path d="M512 0C230.4 0 0 230.4 0 512s230.4 512 512 512 512-230.4 512-512S793.6 0 512 0zM593.066667 145.066667l-21.333333 486.4c0 29.866667-25.6 51.2-55.466667 51.2l-12.8 0c-29.866667 0-51.2-21.333333-55.466667-51.2L426.666667 145.066667c0-29.866667 21.333333-51.2 46.933333-51.2l68.266667 0C571.733333 93.866667 597.333333 115.2 593.066667 145.066667zM571.733333 913.066667C554.666667 930.133333 533.333333 938.666667 512 938.666667c-25.6 0-42.666667-8.533333-59.733333-25.6C435.2 896 426.666667 878.933333 426.666667 853.333333c0-25.6 8.533333-42.666667 25.6-59.733333C469.333333 776.533333 486.4 768 512 768c25.6 0 46.933333 8.533333 64 25.6 17.066667 17.066667 25.6 34.133333 25.6 59.733333C597.333333 878.933333 588.8 900.266667 571.733333 913.066667z" fill="#F7411C" p-id="12839"></path></svg>