<?xml version="1.0" standalone="no"?><!DOCTYPE svg PUBLIC "-//W3C//DTD SVG 1.1//EN" "http://www.w3.org/Graphics/SVG/1.1/DTD/svg11.dtd"><svg t="1677848082835" class="icon" viewBox="0 0 1024 1024" version="1.1" xmlns="http://www.w3.org/2000/svg" p-id="2701" xmlns:xlink="http://www.w3.org/1999/xlink" width="200" height="200"><path d="M516.740741 137.481481L189.62963 341.333333l132.74074 71.111111z" fill="#F55C92" p-id="2702"></path><path d="M509.217185 125.411556l-327.111111 203.851851c-9.27763 5.783704-8.832 19.441778 0.805926 24.604445l132.740741 71.111111a14.222222 14.222222 0 0 0 18.332444-4.323556l194.370371-274.962963c8.96-12.672-5.963852-28.491852-19.138371-20.280888zM464.436148 186.832593L318.008889 393.974519l-99.996445-53.570371 246.423704-153.571555z" fill="#221937" p-id="2703"></path><path d="M516.740741 137.481481L322.37037 412.444444h417.185186z" fill="#FFFFFF" p-id="2704"></path><path d="M505.125926 129.270519l-194.37037 274.962962C304.099556 413.653333 310.836148 426.666667 322.37037 426.666667h417.185186c11.96563 0 18.583704-13.880889 11.045925-23.177482l-222.814814-274.962963a14.222222 14.222222 0 0 0-22.660741 0.744297z m12.387555 31.74874L709.726815 398.222222H349.833481l167.68-237.202963z" fill="#221937" p-id="2705"></path><path d="M516.740741 137.481481l336.592592 203.851852-113.777777 71.111111z" fill="#72DDF5" p-id="2706"></path><path d="M505.694815 146.436741l222.814815 274.962963a14.222222 14.222222 0 0 0 18.583703 3.105185l113.777778-71.111111c8.988444-5.617778 8.89363-18.735407-0.170667-24.225185l-336.592592-203.851852c-13.63437-8.25837-28.453926 8.732444-18.417778 21.12z m73.453037 45.468444l247.044741 149.617778-83.508149 52.195556-163.536592-201.813334z" fill="#221937" p-id="2707"></path><path d="M189.62963 341.333333v388.740741l132.74074-317.62963z" fill="#F55C92" p-id="2708"></path><path d="M175.407407 341.333333v388.740741c0 15.535407 21.352296 19.816296 27.344593 5.485037l132.740741-317.62963a14.222222 14.222222 0 0 0-6.404741-18.019555l-132.740741-71.111111C186.870519 323.721481 175.407407 330.586074 175.407407 341.333333z m28.444445 23.751111l100.408889 53.793186L203.851852 659.147852V365.084444z" fill="#221937" p-id="2709"></path><path d="M189.62963 730.074074l327.111111 47.407407-194.370371-365.037037z" fill="#F55C92" p-id="2710"></path><path d="M309.248 406.959407l-132.740741 317.62963a14.222222 14.222222 0 0 0 11.083852 19.560296l327.111111 47.407408c11.529481 1.673481 20.067556-10.477037 14.592-20.759704l-194.37037-365.037037c-5.641481-10.590815-21.048889-9.870222-25.675852 1.199407z m14.672593 38.660741l167.063703 313.756445-281.159111-40.746667 114.095408-273.009778z" fill="#221937" p-id="2711"></path><path d="M322.37037 412.444444h417.185186l-222.814815 365.037037z" fill="#FFFFFF" p-id="2712"></path><path d="M739.555556 398.222222H322.37037c-10.733037 0-17.59763 11.434667-12.553481 20.906667l194.37037 365.037037c5.176889 9.718519 18.958222 10.121481 24.694519 0.725333l222.814815-365.037037c5.783704-9.481481-1.038222-21.632-12.141037-21.632z m-25.348741 28.444445l-196.626963 322.133333L346.055111 426.666667h368.151704z" fill="#221937" p-id="2713"></path><path d="M739.555556 412.444444l113.777777-71.111111v369.777778z" fill="#72DDF5" p-id="2714"></path><path d="M845.795556 329.272889l-113.777778 71.111111a14.222222 14.222222 0 0 0-5.750519 17.123556l113.777778 298.666666c5.617778 14.757926 27.510519 10.728296 27.510519-5.063111V341.333333c0-11.169185-12.288-17.98163-21.76-12.060444zM839.111111 366.985481v266.846815l-82.104889-215.528296L839.111111 366.985481z" fill="#221937" p-id="2715"></path><path d="M853.333333 711.111111l-336.592592 66.37037 213.333333-365.037037z" fill="#72DDF5" p-id="2716"></path><path d="M717.795556 405.266963l-213.333334 365.037037c-6.181926 10.576593 3.01037 23.499852 15.028148 21.129481l336.592593-66.37037a14.222222 14.222222 0 0 0 10.396444-19.375407l-123.259259-298.666667c-4.489481-10.88-19.484444-11.908741-25.424592-1.754074z m10.074074 39.130074l105.699555 256.113778-288.635259 56.912592 182.935704-313.02637z" fill="#221937" p-id="2717"></path><path d="M189.62963 730.074074l322.37037 175.407407v-128z" fill="#F55C92" p-id="2718"></path><path d="M182.831407 742.565926l322.370371 175.407407c9.481481 5.157926 21.020444-1.706667 21.020444-12.491852v-128a14.222222 14.222222 0 0 0-12.155259-14.070518l-322.37037-47.407407c-15.715556-2.313481-22.817185 18.972444-8.865186 26.56237z m83.783112 13.202963L497.777778 789.764741v91.785481L266.614519 755.768889z" fill="#221937" p-id="2719"></path><path d="M512 905.481481l341.333333-194.37037-341.333333 66.37037z" fill="#72DDF5" p-id="2720"></path><path d="M850.616889 697.14963l-341.333333 66.37037A14.222222 14.222222 0 0 0 497.777778 777.481481v128c0 10.908444 11.780741 17.758815 21.262222 12.359112l341.333333-194.370371c13.989926-7.964444 6.053926-29.392593-9.756444-26.320592z m-79.55437 44.444444L526.222222 881.014519v-91.813926l244.840297-47.606519z" fill="#221937" p-id="2721"></path></svg>