<?xml version="1.0" standalone="no"?><!DOCTYPE svg PUBLIC "-//W3C//DTD SVG 1.1//EN" "http://www.w3.org/Graphics/SVG/1.1/DTD/svg11.dtd"><svg t="1677848121384" class="icon" viewBox="0 0 1024 1024" version="1.1" xmlns="http://www.w3.org/2000/svg" p-id="3855" xmlns:xlink="http://www.w3.org/1999/xlink" width="200" height="200"><path d="M290.8 557.1c13.3-4.7 27.6-7.2 42.4-7.2h0.5c19.4-104.2 109.9-183.3 219.2-185.1-15.2-84.6-89.1-148.9-178.1-148.9-99.9 0-181 81-181 181 0 69.5 39.4 129.9 97 160.2z" fill="#FFF0C2" p-id="3856"></path><path d="M304.2 553.1c9.3-2.2 19-3.3 28.9-3.3h0.5C352.4 448.7 438.3 371.1 543.3 365c-14.9-79.6-84.7-139.8-168.6-139.8-94.7 0-171.5 76.8-171.5 171.5 0.1 69.7 41.5 129.5 101 156.4z" fill="#FFB948" p-id="3857"></path><path d="M425.8 209.7c-10.9-3.6-16.4-12.7-14.5-23.6l16.4-63.6c3.6-10.9 12.7-16.4 23.6-14.5 10.9 3.6 16.4 12.7 14.5 23.6l-16.4 63.6c-1.8 10.9-12.7 16.3-23.6 14.5zM67.6 331.5c3.6-10.9 12.7-16.4 23.6-14.5l63.6 16.4c10.9 3.6 16.4 12.7 14.5 23.6-3.6 10.9-14.5 18.2-23.6 14.5l-63.6-16.4c-10.8-1.7-18.1-12.7-14.5-23.6zM549.5 291.5c-5.5-9.1-1.8-21.8 7.3-27.3l56.4-32.7c9.1-5.5 21.8-1.8 27.3 7.3s1.8 21.8-7.3 27.3l-56.4 32.7c-11 5.5-21.9 1.8-27.3-7.3zM96.7 555.2c-5.5-9.1-1.8-21.8 7.3-27.3l56.4-32.7c9.1-5.5 21.8-1.8 27.3 7.3s1.8 21.8-7.3 27.3L124 562.5c-9.1 5.4-21.8 1.8-27.3-7.3zM209.4 124.3c9.1-5.5 21.8-1.8 27.3 7.3l32.7 56.4c5.5 9.1 1.8 21.8-7.3 27.3s-21.8 1.8-27.3-7.3l-32.7-56.4c-5.4-11-1.7-21.9 7.3-27.3z" fill="#FFB948" p-id="3858"></path><path d="M764.1 852H333.2c-42.8 0-83-17.5-113.5-49.2-30-31.2-46.5-71.9-46.5-114.7s16.5-83.5 46.5-114.7c25.6-26.7 58.2-43.3 93.3-47.9C342.4 416.3 441.9 339 556.7 339c45.6 0 90.3 12.3 129.3 35.6 33.4 19.9 61.8 47.4 82.8 80 50.2 1.3 97.3 22.2 133.2 59.2 36.6 37.8 56.8 87.3 56.8 139.4S938.6 754.8 902 792.6c-37 38.3-86 59.4-137.9 59.4zM332.8 575.3c-58.9 0.2-108.6 51.8-108.6 112.8 0 61.2 49.9 112.8 108.9 112.8H764c77.9 0 143.8-67.6 143.8-147.7S842 505.6 764.1 505.6c-2.5 0-5.1 0.1-8 0.2l-15.8 0.9-7.8-13.8c-35.7-63.4-103-102.8-175.6-102.8-97 0-180.3 69.1-198 164.4l-3.9 20.9-21.3-0.1h-0.9z" fill="#9EB5C6" p-id="3859"></path><path d="M870 688.3h-1.3c-9.2-0.7-16.2-8.8-15.5-18 2-26.1-6.5-53-23.5-73.7-17.2-21-40.8-33.7-66.6-35.6-1.7-0.1-3.5-0.2-5.4-0.3-6.5-0.1-12.4-4.1-15-10-3.8-8.5 0-18.4 8.4-22.2 2.9-1.3 5.9-1.7 8.8-1.4 2 0.1 3.9 0.2 5.8 0.3 35 2.7 67 19.7 90 47.8 22.3 27.3 33.6 62.8 31 97.5-0.7 8.9-8 15.6-16.7 15.6z" fill="#AEC5D3" p-id="3860"></path></svg>