<?xml version="1.0" standalone="no"?><!DOCTYPE svg PUBLIC "-//W3C//DTD SVG 1.1//EN" "http://www.w3.org/Graphics/SVG/1.1/DTD/svg11.dtd"><svg t="1677848216248" class="icon" viewBox="0 0 1024 1024" version="1.1" xmlns="http://www.w3.org/2000/svg" p-id="6839" xmlns:xlink="http://www.w3.org/1999/xlink" width="200" height="200"><path d="M1011.2 511.9488c0 91.0336-24.2688 176.2304-66.816 249.6512l-0.1024-0.0512L512 511.9488h499.2zM944.384 262.2976l-0.1024 0.1024L512 511.9488l249.6-432.2816 0.0512-0.0512a501.80096 501.80096 0 0 1 182.7328 182.6816zM761.7024 944.384c-73.472 42.496-158.72 66.816-249.7024 66.816V511.9488l249.6 432.2816 0.1024 0.1536zM512 12.8v499.1488L262.4 79.6672l-0.0512-0.0512C335.7696 37.12 421.0176 12.8 512 12.8zM512 511.9488l-249.6 432.2816-0.1536 0.1536c-75.7248-43.8784-138.9056-107.008-182.6304-182.784l0.1024-0.0512L512 511.9488zM512 511.9488H12.8c0-90.9824 24.32-176.2304 66.816-249.6512l0.1024 0.1024L512 511.9488z" fill="#F9D008" p-id="6840"></path><path d="M512 513.3824a1.3824 1.3824 0 0 1-1.2288-0.7168L261.2224 80.4352c-0.2048-0.3072-0.256-0.6144-0.2048-0.9728 0.0512-0.4096 0.3072-0.8704 0.6656-1.0752C337.408 34.56 423.9872 11.3664 512 11.3664c0.768 0 1.4336 0.6144 1.4336 1.4336v499.1488c0 0.6656-0.4096 1.1776-1.0752 1.3824-0.1024 0-0.256 0.0512-0.3584 0.0512zM264.3456 80.128l246.272 426.496V14.2336c-86.5792 0.256-171.6736 22.9888-246.272 65.8944z" p-id="6841"></path><path d="M512 513.3824c-0.3584 0-0.7168-0.1536-1.024-0.4096-0.4608-0.4608-0.5632-1.1776-0.2048-1.6896l249.5488-432.2816c0.0512-0.1024 0.1536-0.2048 0.2048-0.3072 0.4608-0.4608 1.2288-0.6144 1.7408-0.256a502.4768 502.4768 0 0 1 183.2448 183.1424c0.3072 0.5632 0.2048 1.28-0.2048 1.6896-0.1024 0.1024-0.3072 0.256-0.4096 0.3072l-432.2816 249.6a0.9728 0.9728 0 0 1-0.6144 0.2048z m250.112-431.8208l-246.2208 426.5472 426.5472-246.272c-43.3664-74.5984-105.728-136.8576-180.3264-180.2752z m182.1696 180.8384z" p-id="6842"></path><path d="M512 513.3824H12.8a1.4336 1.4336 0 0 1-1.4336-1.4336c0-88.0128 23.1936-174.592 67.0208-250.368 0.2048-0.3584 0.6144-0.6144 1.024-0.7168 0.4096-0.0512 0.8704 0.1024 1.1776 0.3584l432.128 249.4976c0.5632 0.3072 0.8192 0.9728 0.6656 1.5872-0.2048 0.6144-0.7168 1.0752-1.3824 1.0752z m-497.7664-2.8672h492.4928l-426.5984-246.272C37.2224 338.8928 14.4896 423.9872 14.2336 510.5152z" p-id="6843"></path><path d="M262.144 945.7152c-0.2048 0-0.4096-0.0512-0.6144-0.1536a502.23104 502.23104 0 0 1-183.1424-183.296 1.46944 1.46944 0 0 1-0.1536-1.1264 1.4848 1.4848 0 0 1 0.7168-0.8704l432.2816-249.6c0.5632-0.3072 1.28-0.2048 1.6896 0.2048s0.5632 1.1776 0.2048 1.6896l-249.6 432.2816c-0.0512 0.1024-0.1536 0.2048-0.2048 0.3072-0.2048 0.3584-0.7168 0.5632-1.1776 0.5632z m-180.5824-183.6032c43.3152 74.5472 105.6256 136.8576 180.224 180.3264l246.3232-426.6496-426.5472 246.3232z" p-id="6844"></path><path d="M512 1012.6336a1.4336 1.4336 0 0 1-1.4336-1.4336V511.9488c0-0.6656 0.4096-1.1776 1.0752-1.3824 0.6144-0.1536 1.28 0.1024 1.5872 0.6656l249.5488 432.1792c0.2048 0.3072 0.3584 0.7168 0.3072 1.024-0.0512 0.4096-0.256 0.8704-0.6144 1.1264-75.8272 43.8784-162.4064 67.072-250.4704 67.072z m1.4336-495.4112v492.544c86.5792-0.256 171.6736-23.04 246.3232-65.8944l-246.3232-426.6496z" p-id="6845"></path><path d="M944.384 762.9824c-0.2048 0-0.4096-0.0512-0.6144-0.1536l-432.4352-249.6512a1.4336 1.4336 0 0 1 0.7168-2.6624h499.2c0.768 0 1.4336 0.6144 1.4336 1.4336v0.0512c0 88.1152-23.1936 174.6432-67.0208 250.2656-0.3584 0.4608-0.8192 0.7168-1.28 0.7168z m-427.1104-249.6l426.5472 246.272c42.9056-74.5472 65.6896-159.6416 65.9456-246.272h-492.4928z" p-id="6846"></path><path d="M761.6 945.6128a1.3824 1.3824 0 0 1-1.2288-0.7168l-249.5488-432.2816c-0.4096-0.6656-0.1536-1.536 0.512-1.9456 0.6656-0.4096 1.536-0.1536 1.9456 0.512L762.88 943.4624c0.4096 0.6656 0.1536 1.536-0.512 1.9456-0.3072 0.1536-0.5632 0.2048-0.768 0.2048z" p-id="6847"></path><path d="M944.2816 762.9312a1.28 1.28 0 0 1-0.7168-0.2048l-432.2816-249.6a1.42848 1.42848 0 0 1-0.512-1.9456c0.4096-0.6656 1.28-0.9216 1.9456-0.512l432.2816 249.5488c0.6656 0.4096 0.9216 1.28 0.512 1.9456-0.256 0.512-0.768 0.768-1.2288 0.768z" p-id="6848"></path><path d="M1011.2 513.3824H12.8c-0.768 0-1.4336-0.6144-1.4336-1.4336s0.6144-1.4336 1.4336-1.4336h998.4a1.4336 1.4336 0 1 1 0 2.8672z" p-id="6849"></path><path d="M79.7184 762.9312a1.3824 1.3824 0 0 1-1.2288-0.7168c-0.4096-0.6656-0.1536-1.536 0.512-1.9456L943.5136 261.12c0.6656-0.4096 1.536-0.1536 1.9456 0.512 0.4096 0.6656 0.1536 1.536-0.512 1.9456l-864.512 499.2a1.6384 1.6384 0 0 1-0.7168 0.1536z" p-id="6850"></path><path d="M262.4 945.6128a1.28 1.28 0 0 1-0.7168-0.2048 1.42848 1.42848 0 0 1-0.512-1.9456L760.32 78.9504c0.4096-0.6656 1.28-0.9216 1.9456-0.512 0.6656 0.4096 0.9216 1.28 0.512 1.9456L263.6288 944.9472c-0.256 0.4096-0.7168 0.6656-1.2288 0.6656z" p-id="6851"></path><path d="M512 1012.5312a1.4336 1.4336 0 0 1-1.4336-1.4336V12.8c0-0.768 0.6144-1.4336 1.4336-1.4336s1.4336 0.6144 1.4336 1.4336v998.2976c0 0.768-0.6656 1.4336-1.4336 1.4336z" p-id="6852"></path><path d="M512 512m-44.9536 0a44.9536 44.9536 0 1 0 89.9072 0 44.9536 44.9536 0 1 0-89.9072 0Z" fill="#F4F9F9" p-id="6853"></path><path d="M512 558.3872c-25.6 0-46.3872-20.7872-46.3872-46.3872 0-25.6 20.7872-46.3872 46.3872-46.3872 25.6 0 46.3872 20.7872 46.3872 46.3872 0 25.6-20.7872 46.3872-46.3872 46.3872z m0-89.856c-23.9616 0-43.4688 19.5072-43.4688 43.4688s19.5072 43.52 43.4688 43.52 43.52-19.5072 43.52-43.52c0-23.9616-19.5584-43.4688-43.52-43.4688z" p-id="6854"></path><path d="M512 1016.1152c-277.9648 0-504.1152-226.1504-504.1152-504.1152S234.0352 7.8848 512 7.8848s504.1152 226.1504 504.1152 504.1152-226.1504 504.1152-504.1152 504.1152z m0-1003.1104C236.8512 13.0048 13.0048 236.8512 13.0048 512c0 275.1488 223.8464 498.9952 498.9952 498.9952 275.1488 0 498.9952-223.8464 498.9952-498.9952 0-275.1488-223.8464-498.9952-498.9952-498.9952z" p-id="6855"></path><path d="M512 1023.7952C229.7856 1023.7952 0.2048 794.2144 0.2048 512S229.7856 0.2048 512 0.2048s511.7952 229.5808 511.7952 511.7952-229.5808 511.7952-511.7952 511.7952z m0-1003.1104C241.1008 20.6848 20.6848 241.1008 20.6848 512s220.416 491.3152 491.3152 491.3152 491.3152-220.416 491.3152-491.3152S782.8992 20.6848 512 20.6848z" fill="#000704" p-id="6856"></path></svg>