<?xml version="1.0" standalone="no"?><!DOCTYPE svg PUBLIC "-//W3C//DTD SVG 1.1//EN" "http://www.w3.org/Graphics/SVG/1.1/DTD/svg11.dtd"><svg t="1677848156128" class="icon" viewBox="0 0 1024 1024" version="1.1" xmlns="http://www.w3.org/2000/svg" p-id="5025" xmlns:xlink="http://www.w3.org/1999/xlink" width="200" height="200"><path d="M597.333333 0c69.12 0 289.237333 218.624 298.368 294.058667L896 298.666667v186.666666a42.666667 42.666667 0 0 1-85.034667 4.992L810.666667 485.333333V341.333333h-128a128 128 0 0 1-127.786667-120.490666L554.666667 213.333333V85.333333H170.666667a42.666667 42.666667 0 0 0-42.368 37.674667L128 128v725.333333a85.333333 85.333333 0 0 0 78.933333 85.12L213.333333 938.666667h341.333334a42.666667 42.666667 0 0 1 4.992 85.034666L554.666667 1024H213.333333a170.666667 170.666667 0 0 1-170.453333-162.133333L42.666667 853.333333V128A128 128 0 0 1 163.157333 0.213333L170.666667 0h426.666666z m256 700.330667a42.666667 42.666667 0 0 1 30.165334 12.501333l67.669333 67.669333a42.666667 42.666667 0 0 1 0 60.330667l-67.669333 67.669333A42.666667 42.666667 0 0 1 810.666667 878.336V853.333333h-213.333334a42.666667 42.666667 0 0 1 0-85.333333h213.333334v-25.002667a42.666667 42.666667 0 0 1 42.666666-42.666666zM597.333333 554.666667a42.666667 42.666667 0 0 1 0 85.333333H298.666667a42.666667 42.666667 0 0 1 0-85.333333h298.666666z m-85.333333-213.333334a42.666667 42.666667 0 0 1 0 85.333334H298.666667a42.666667 42.666667 0 1 1 0-85.333334h213.333333z m128-226.432V213.333333a42.666667 42.666667 0 0 0 37.674667 42.368L682.666667 256h98.474666A1572.693333 1572.693333 0 0 0 640 114.944z" fill="#008df0" p-id="5026"></path></svg>