<?xml version="1.0" standalone="no"?><!DOCTYPE svg PUBLIC "-//W3C//DTD SVG 1.1//EN" "http://www.w3.org/Graphics/SVG/1.1/DTD/svg11.dtd"><svg t="1677848129946" class="icon" viewBox="0 0 1024 1024" version="1.1" xmlns="http://www.w3.org/2000/svg" p-id="4137" xmlns:xlink="http://www.w3.org/1999/xlink" width="200" height="200"><path d="M350.4 136.5h328.1c16 0 32 15.4 35.8 34.5l135.4 677.6c3.8 19-16.1 34.5-44.4 34.5H223.6c-28.3 0-48.2-15.4-44.4-34.5L314.6 171c3.8-19.1 19.8-34.5 35.8-34.5z" fill="#00D8FF" p-id="4138"></path><path d="M400.9 168.4H628c5.2 0 9.6 3.7 10.5 8.8l125.1 705.9H265.3l125.1-705.9c0.9-5.1 5.3-8.8 10.5-8.8z" fill="#F1F2F2" p-id="4139"></path><path d="M432.7 168.4h163.5c5.4 0 9.9 4 10.6 9.3l90.5 705.4H331.6l90.5-705.4c0.7-5.3 5.2-9.3 10.6-9.3z" fill="#FFFFFF" p-id="4140"></path><path d="M514.4 200.6c18.1 0 32.7 14.6 32.7 32.7S532.5 266 514.4 266s-32.7-14.6-32.7-32.7c0.1-18.1 14.7-32.7 32.7-32.7z" fill="#F1F2F2" p-id="4141"></path><path d="M418.4 627.4c11.7 0 21.2 9.5 21.2 21.2V691c0 11.7-9.5 21.2-21.2 21.2s-21.2-9.5-21.2-21.2v-42.4c0-11.7 9.5-21.2 21.2-21.2zM610.5 627.4c11.7 0 21.2 9.5 21.2 21.2V691c0 11.7-9.5 21.2-21.2 21.2s-21.2-9.5-21.2-21.2v-42.4c0-11.7 9.5-21.2 21.2-21.2z" fill="#80F688" p-id="4142"></path><path d="M514.4 753.6c18.1 0 32.7 14.6 32.7 32.7S532.5 819 514.4 819s-32.7-14.6-32.7-32.7c0.1-18 14.7-32.7 32.7-32.7zM514.4 624.1c18.1 0 32.7 14.6 32.7 32.7s-14.6 32.7-32.7 32.7-32.7-14.6-32.7-32.7c0.1-18.1 14.7-32.7 32.7-32.7zM514.4 474.8c18.1 0 32.7 14.6 32.7 32.7s-14.6 32.7-32.7 32.7-32.7-14.6-32.7-32.7c0.1-18.1 14.7-32.7 32.7-32.7zM514.4 325.5c18.1 0 32.7 14.6 32.7 32.7s-14.6 32.7-32.7 32.7-32.7-14.6-32.7-32.7c0.1-18.1 14.7-32.7 32.7-32.7z" fill="#F1F2F2" p-id="4143"></path><path d="M330.9 540.1c23.4 0 42.4 19 42.4 42.4s-19 42.4-42.4 42.4-42.4-19-42.4-42.4 19-42.4 42.4-42.4zM696.7 540.1c23.4 0 42.4 19 42.4 42.4s-19 42.4-42.4 42.4-42.4-19-42.4-42.4 18.9-42.4 42.4-42.4z" fill="#00A5FF" p-id="4144"></path><path d="M879.5 640.9H149.4c-8.8 0-15.9-7.1-15.9-15.9s7.1-15.9 15.9-15.9h730.1c8.8 0 15.9 7.1 15.9 15.9s-7.1 15.9-15.9 15.9z" fill="#00A5FF" p-id="4145"></path></svg>