<?xml version="1.0" standalone="no"?><!DOCTYPE svg PUBLIC "-//W3C//DTD SVG 1.1//EN" "http://www.w3.org/Graphics/SVG/1.1/DTD/svg11.dtd"><svg t="1677848198454" class="icon" viewBox="0 0 1024 1024" version="1.1" xmlns="http://www.w3.org/2000/svg" p-id="6256" xmlns:xlink="http://www.w3.org/1999/xlink" width="200" height="200"><path d="M834 177.15V124H191v53.714c0.8 0.284 1.594 0.603 2.381 0.96l310.69 140.77L830.341 178.46a30.286 30.286 0 0 1 3.658-1.31z m0 65.092L515.682 379.788a30 30 0 0 1-24.28-0.213L191 243.467V894h643V242.242zM191 64h643c33.137 0 60 26.863 60 60v770c0 33.137-26.863 60-60 60H191c-33.137 0-60-26.863-60-60V124c0-33.137 26.863-60 60-60z" fill="#2F54EB" p-id="6257"></path><path d="M512.21 513.389l136.072-136.815 42.542 42.31-157.412 158.271c-11.756 11.82-30.893 11.79-42.61-0.068l-156.467-158.34 42.677-42.173L512.21 513.39z" fill="#85A5FF" p-id="6258"></path><path d="M320.455 571.49l-0.133-60 383.42-0.844 0.133 60zM320.86 702.5v-60h382.346v60z" fill="#85A5FF" p-id="6259"></path><path d="M485.5 513.536h60v318.008h-60z" fill="#85A5FF" p-id="6260"></path></svg>