<?xml version="1.0" standalone="no"?><!DOCTYPE svg PUBLIC "-//W3C//DTD SVG 1.1//EN" "http://www.w3.org/Graphics/SVG/1.1/DTD/svg11.dtd"><svg t="1677848161040" class="icon" viewBox="0 0 1024 1024" version="1.1" xmlns="http://www.w3.org/2000/svg" p-id="5164" xmlns:xlink="http://www.w3.org/1999/xlink" width="200" height="200"><path d="M528.45 949.94H102.86c-16.87 0-30.55-15.36-30.55-34.29V85c0-19 13.69-34.34 30.55-34.34h833C952.71 50.66 966.4 66 966.4 85v467.87c0 18.93-13.69 34.29-30.56 34.29s-30.55-15.36-30.55-34.29V119.24H133.42v765.12h395c16.87 0 30.55 15.36 30.55 34.29s-13.65 31.29-30.52 31.29z" fill="#0C5AE5" p-id="5165"></path><path d="M682.85 941.51A29.59 29.59 0 0 1 660.58 931L527.41 779.69a39.3 39.3 0 0 1 0-50.61l133.17-151.36c12.3-14 32.23-14 44.53 0s12.3 36.63 0 50.61L594.2 754.39l110.91 126c12.3 14 12.3 36.63 0 50.61a29.59 29.59 0 0 1-22.26 10.51z" fill="#85A5FF" p-id="5166"></path><path d="M933.51 790.18H681c-17.61 0-31.89-16-31.89-35.79s14.3-35.79 31.89-35.79h252.51c17.6 0 31.89 16 31.89 35.79s-14.29 35.79-31.89 35.79zM745.23 308.22H297a30.92 30.92 0 0 1 0-61.84h448.23a30.92 30.92 0 0 1 0 61.84zM745.23 497.2H297a30.92 30.92 0 1 1 0-61.84h448.23a30.92 30.92 0 0 1 0 61.84z" fill="#85A5FF" p-id="5167"></path></svg>