<?xml version="1.0" standalone="no"?><!DOCTYPE svg PUBLIC "-//W3C//DTD SVG 1.1//EN" "http://www.w3.org/Graphics/SVG/1.1/DTD/svg11.dtd"><svg t="1677848096494" class="icon" viewBox="0 0 1024 1024" version="1.1" xmlns="http://www.w3.org/2000/svg" p-id="3140" xmlns:xlink="http://www.w3.org/1999/xlink" width="200" height="200"><path d="M512 36.141176c68.266667 0 132.517647 27.105882 180.705882 75.294118L913.568627 331.294118c48.188235 48.188235 75.294118 112.439216 75.294118 180.705882S961.756863 644.517647 913.568627 692.705882L693.709804 913.568627c-48.188235 48.188235-112.439216 75.294118-180.705882 75.294118-68.266667 0-132.517647-27.105882-180.705883-75.294118l-220.862745-220.862745c-99.388235-99.388235-99.388235-262.023529 0-362.415686L331.294118 110.431373c48.188235-48.188235 112.439216-74.290196 180.705882-74.290197m0-30.117647c-73.286275 0-146.572549 28.109804-202.792157 83.325491L90.352941 309.207843a285.997176 285.997176 0 0 0 0 405.584314l219.858824 219.858823c56.219608 56.219608 129.505882 83.32549 202.792157 83.325491s146.572549-28.109804 202.792156-83.325491l219.858824-219.858823c111.435294-111.435294 111.435294-293.145098 0-404.580392l-220.862745-220.862745C658.572549 34.133333 585.286275 6.023529 512 6.023529z" fill="#575757" p-id="3141"></path><path d="M629.458824 401.568627c61.239216 0 110.431373 49.192157 110.431372 110.431373s-49.192157 110.431373-110.431372 110.431373H396.54902c-61.239216 0-110.431373-49.192157-110.431373-110.431373s49.192157-110.431373 110.431373-110.431373h232.909804m0-60.235294H396.54902c-94.368627 0-170.666667 76.298039-170.666667 170.666667s76.298039 170.666667 170.666667 170.666667h232.909804c94.368627 0 170.666667-76.298039 170.666666-170.666667s-76.298039-170.666667-170.666666-170.666667z" fill="#2396F4" p-id="3142"></path><path d="M402.572549 491.921569c11.043137 0 20.078431 9.035294 20.078431 20.078431s-9.035294 20.078431-20.078431 20.078431-20.078431-9.035294-20.078431-20.078431 9.035294-20.078431 20.078431-20.078431m0-60.235294c-44.172549 0-80.313725 36.141176-80.313725 80.313725s36.141176 80.313725 80.313725 80.313725 80.313725-36.141176 80.313726-80.313725-36.141176-80.313725-80.313726-80.313725z" fill="#E85F5B" p-id="3143"></path></svg>