<?xml version="1.0" standalone="no"?><!DOCTYPE svg PUBLIC "-//W3C//DTD SVG 1.1//EN" "http://www.w3.org/Graphics/SVG/1.1/DTD/svg11.dtd"><svg t="1677848264699" class="icon" viewBox="0 0 1024 1024" version="1.1" xmlns="http://www.w3.org/2000/svg" p-id="8428" xmlns:xlink="http://www.w3.org/1999/xlink" width="200" height="200"><path d="M960.7168 511.1808l-249.4464-118.3744-76.3904-36.2496-76.3904 36.2496 76.3904 36.2496 173.056 82.1248-173.056 82.1248-76.3904 36.2496-48.3328 22.9376-48.3328-22.9376-76.3904-36.2496-173.056-82.1248 173.056-82.1248 76.3904-36.2496-76.3904-36.2496-76.3904 36.2496-249.4464 118.3744 249.4464 118.3744-249.4464 118.3744 450.56 213.8112 450.56-213.8112-249.4464-118.3744 249.4464-118.3744z m-152.7808 236.7488l-297.7792 141.312-297.7792-141.312 173.056-82.1248 124.7232 59.1872 124.7232-59.1872 173.056 82.1248z" p-id="8429"></path><path d="M510.1568 60.6208L59.5968 274.432l249.4464 118.3744 76.3904 36.2496 124.7232 59.1872 124.7232-59.1872 76.3904-36.2496L960.7168 274.432l-450.56-213.8112z m124.928 295.936l-76.3904 36.2496-48.5376 22.9376-48.3328-22.9376-76.3904-36.2496-172.8512-82.1248 297.7792-141.312 297.7792 141.312-173.056 82.1248z" fill="#0074FF" p-id="8430"></path></svg>