<?xml version="1.0" standalone="no"?><!DOCTYPE svg PUBLIC "-//W3C//DTD SVG 1.1//EN" "http://www.w3.org/Graphics/SVG/1.1/DTD/svg11.dtd"><svg t="1677848206999" class="icon" viewBox="0 0 1024 1024" version="1.1" xmlns="http://www.w3.org/2000/svg" p-id="6554" xmlns:xlink="http://www.w3.org/1999/xlink" width="200" height="200"><path d="M757.5 721.2c-192.3 0-348.2-155.9-348.2-348.2 0-77 25-148.1 67.3-205.7-159.2 32-279.1 172.7-279.1 341.3 0 192.3 155.9 348.2 348.2 348.2 115.3 0 217.6-56.1 280.9-142.5-22.4 4.5-45.4 6.9-69.1 6.9z" p-id="6555"></path><path d="M598 376.5c4.3 4.2 6.2 10.2 5.2 16.1l-6 34.8c-2.5 14.8 13 26.1 26.3 19.1l31.3-16.4c5.3-2.8 11.6-2.8 16.9 0l31.3 16.4c13.3 7 28.9-4.3 26.3-19.1l-6-34.8c-1-5.9 0.9-11.9 5.2-16.1l25.3-24.7c10.8-10.5 4.8-28.8-10-30.9l-35-5.1c-5.9-0.9-11-4.6-13.7-9.9l-15.6-31.7c-6.7-13.5-25.9-13.5-32.5 0L631.4 306c-2.6 5.4-7.7 9.1-13.7 9.9l-35 5.1c-14.9 2.2-20.8 20.4-10 30.9l25.3 24.6zM740.3 491.1l-7.5 15.1c-1.3 2.6-3.7 4.3-6.5 4.7l-16.7 2.4c-7.1 1-10 9.8-4.8 14.8l12.1 11.8c2 2 3 4.9 2.5 7.7l-2.9 16.6c-1.2 7.1 6.2 12.5 12.6 9.1l15-7.9c2.5-1.3 5.5-1.3 8.1 0l15 7.9c6.4 3.3 13.8-2.1 12.6-9.1l-2.9-16.6c-0.5-2.8 0.5-5.7 2.5-7.7l12.1-11.8c5.1-5 2.3-13.8-4.8-14.8l-16.7-2.4c-2.8-0.4-5.3-2.2-6.5-4.7l-7.5-15.1c-3.3-6.4-12.5-6.4-15.7 0z" p-id="6556"></path></svg>