<?xml version="1.0" standalone="no"?><!DOCTYPE svg PUBLIC "-//W3C//DTD SVG 1.1//EN" "http://www.w3.org/Graphics/SVG/1.1/DTD/svg11.dtd"><svg t="1677848165632" class="icon" viewBox="0 0 1024 1024" version="1.1" xmlns="http://www.w3.org/2000/svg" p-id="5305" xmlns:xlink="http://www.w3.org/1999/xlink" width="200" height="200"><path d="M463.368 835.6c-139.688-23.544-278.456-159-278.456-323.256 6.512-159.328 121.848-293.224 278.456-323.256V0.648C230.768 24.192 0.008 244.08 0.008 511.704c0 267.616 230.624 488.16 463.352 511.048V835.6z m0 0" fill="#3EBDFF" p-id="5306"></path><path d="M837.352 511.704a322.96 322.96 0 0 1-21.6 121.048l161.832 93.592a520.536 520.536 0 0 0 44.528-214.64m0 0c6.728-267.888-199.096-493.376-466.488-511.056l0.648 187.8c186.088 23.576 281.08 159 281.08 323.256" fill="#FD6421" p-id="5307"></path><path d="M770.336 711.928a315.104 315.104 0 0 1-212.056 121.832v188a533.704 533.704 0 0 0 371.096-216.168l-159.04-93.664z m0 0" fill="#3EBDFF" p-id="5308"></path></svg>