<?xml version="1.0" standalone="no"?><!DOCTYPE svg PUBLIC "-//W3C//DTD SVG 1.1//EN" "http://www.w3.org/Graphics/SVG/1.1/DTD/svg11.dtd"><svg t="1677848211402" class="icon" viewBox="0 0 1024 1024" version="1.1" xmlns="http://www.w3.org/2000/svg" p-id="6697" xmlns:xlink="http://www.w3.org/1999/xlink" width="200" height="200"><path d="M677.934545 120.552727a243.898182 243.898182 0 0 0-52.130909 0l-6.749091 1.163637a245.294545 245.294545 0 0 0-209.454545 199.68l-134.981818-74.24a32.814545 32.814545 0 0 0-28.16 58.88l165.469091 116.363636a243.898182 243.898182 0 0 0 44.450909 93.090909l4.421818 5.585455 13.265455 16.058181L138.007273 637.672727a30.487273 30.487273 0 0 0-12.101818 55.156364l290.676363 203.636364a74.472727 74.472727 0 0 0 43.985455 13.963636h162.909091a20.712727 20.712727 0 0 0 9.774545-39.098182l-279.272727-167.330909a13.032727 13.032727 0 0 1-5.12-17.687273 12.567273 12.567273 0 0 1 7.68-6.050909L528.989091 605.090909l97.512727 121.483636a8.145455 8.145455 0 0 0 2.56 2.327273h1.163637a11.636364 11.636364 0 0 0 2.792727 1.861818 23.272727 23.272727 0 0 0 5.352727 2.792728l4.887273 1.861818h3.025454a26.530909 26.530909 0 0 0 12.101819 0h3.723636l3.956364-1.629091a17.92 17.92 0 0 0 5.585454-2.792727l3.723636-2.56a9.774545 9.774545 0 0 0 3.025455-2.56l162.909091-204.101819 4.654545-5.585454a245.992727 245.992727 0 0 0-168.96-395.636364z m8.145455 327.447273l-7.447273 3.025455a78.429091 78.429091 0 0 1-7.912727 2.094545 88.203636 88.203636 0 0 1-36.072727 0 64.930909 64.930909 0 0 1-7.912728-2.094545l-3.956363-1.396364-3.723637-1.629091a89.6 89.6 0 0 1-55.854545-83.083636 88.436364 88.436364 0 0 1 55.854545-82.618182 10.007273 10.007273 0 0 1 2.792728-1.163637l5.12-1.861818a85.178182 85.178182 0 0 1 25.6-3.723636 83.083636 83.083636 0 0 1 25.6 3.723636 39.796364 39.796364 0 0 1 7.912727 3.025455 89.134545 89.134545 0 0 1 0 165.469091z" fill="#FF6320" p-id="6698"></path></svg>