<?xml version="1.0" standalone="no"?><!DOCTYPE svg PUBLIC "-//W3C//DTD SVG 1.1//EN" "http://www.w3.org/Graphics/SVG/1.1/DTD/svg11.dtd"><svg t="1677848150662" class="icon" viewBox="0 0 1024 1024" version="1.1" xmlns="http://www.w3.org/2000/svg" p-id="4872" xmlns:xlink="http://www.w3.org/1999/xlink" width="200" height="200"><path d="M512 516.215012m-507.784988 0a507.784988 507.784988 0 1 0 1015.569976 0 507.784988 507.784988 0 1 0-1015.569976 0Z" fill="#F0F2F2" p-id="4873"></path><path d="M32.480387 964.295593c-7.735787 0-14.083099-5.454722-14.182276-12.198741L7.983729 507.784988h48.993317L46.662663 952.096852c-0.099177 6.843196-6.446489 12.198741-14.182276 12.198741z" fill="#5AA8AC" p-id="4874"></path><path d="M59.158935 365.069637H5.80184v-35.604455c0-6.545666 5.355545-11.901211 11.901211-11.901211h29.554673c6.545666 0 11.901211 5.355545 11.901211 11.901211v35.604455z" fill="#4F888D" p-id="4875"></path><path d="M7.983729 375.582373h48.993317v119.21046H7.983729z" fill="#A8C8CB" p-id="4876"></path><path d="M877.763874 964.989831H174.997385c-16.760872 0-30.348087-13.587215-30.348087-30.348088V112.763971h763.363487v821.976949c0 16.760872-13.488039 30.24891-30.248911 30.248911z" fill="#4F888D" p-id="4877"></path><path d="M809.827797 872.358741H242.834286c-8.430024 0-15.174044-6.843196-15.174044-15.174044V205.395061h597.440775v651.789636c0 8.430024-6.843196 15.174044-15.27322 15.174044z" fill="#FFFFFF" p-id="4878"></path><path d="M965.436126 210.849782H86.035835c-5.454722 0-10.016852-4.462954-10.016852-10.016852V87.077191c0-5.454722 4.462954-10.016852 10.016852-10.016852h879.301114c5.454722 0 10.016852 4.462954 10.016852 10.016852v113.755739c0 5.553898-4.462954 10.016852-9.917675 10.016852z" fill="#5AA8AC" p-id="4879"></path><path d="M403.996513 852.325036H260.289395c-6.942373 0-12.595448-5.653075-12.595448-12.595448V696.02247c0-6.942373 5.653075-12.595448 12.595448-12.595448h143.707118c6.942373 0 12.595448 5.653075 12.595448 12.595448v143.707118c0 7.04155-5.653075 12.595448-12.595448 12.595448z" fill="#A8C8CB" p-id="4880"></path><path d="M792.471864 852.325036H648.764746c-6.942373 0-12.595448-5.653075-12.595448-12.595448V696.02247c0-6.942373 5.653075-12.595448 12.595448-12.595448h143.707118c6.942373 0 12.595448 5.653075 12.595448 12.595448v143.707118c0 7.04155-5.653075 12.595448-12.595448 12.595448z" fill="#88A9D8" opacity=".51" p-id="4881"></path><path d="M598.1846 847.961259H454.477482c-6.942373 0-12.595448-5.653075-12.595448-12.595448v-143.806295c0-6.942373 5.653075-12.595448 12.595448-12.595448h143.707118c6.942373 0 12.595448 5.653075 12.595448 12.595448v143.707118c0.099177 7.04155-5.553898 12.694625-12.595448 12.694625zM403.996513 653.673995H260.289395c-6.942373 0-12.595448-5.653075-12.595448-12.595448V497.371429c0-6.942373 5.653075-12.595448 12.595448-12.595448h143.707118c6.942373 0 12.595448 5.653075 12.595448 12.595448v143.707118c0 6.942373-5.653075 12.595448-12.595448 12.595448zM792.471864 653.673995H648.764746c-6.942373 0-12.595448-5.653075-12.595448-12.595448V497.371429c0-6.942373 5.653075-12.595448 12.595448-12.595448h143.707118c6.942373 0 12.595448 5.653075 12.595448 12.595448v143.707118c0 6.942373-5.653075 12.595448-12.595448 12.595448z" fill="#C0D8D8" p-id="4882"></path><path d="M598.1846 653.673995H454.477482c-6.942373 0-12.595448-5.653075-12.595448-12.595448V497.371429c0-6.942373 5.653075-12.595448 12.595448-12.595448h143.707118c6.942373 0 12.595448 5.653075 12.595448 12.595448v143.707118c0.099177 6.942373-5.553898 12.595448-12.595448 12.595448z" fill="#DDE6E7" p-id="4883"></path><path d="M403.996513 459.485908H260.289395c-6.942373 0-12.595448-5.653075-12.595448-12.595448V303.183341c0-6.942373 5.653075-12.595448 12.595448-12.595448h143.707118c6.942373 0 12.595448 5.653075 12.595448 12.595448v143.707119c0 6.942373-5.653075 12.595448-12.595448 12.595448z" fill="#88A9D8" opacity=".51" p-id="4884"></path><path d="M792.471864 459.485908H648.764746c-6.942373 0-12.595448-5.653075-12.595448-12.595448V303.183341c0-6.942373 5.653075-12.595448 12.595448-12.595448h143.707118c6.942373 0 12.595448 5.653075 12.595448 12.595448v143.707119c0 6.942373-5.653075 12.595448-12.595448 12.595448z" fill="#A8C8CB" p-id="4885"></path><path d="M598.1846 459.485908H454.477482c-6.942373 0-12.595448-5.653075-12.595448-12.595448V303.183341c0-6.942373 5.653075-12.595448 12.595448-12.595448h143.707118c6.942373 0 12.595448 5.653075 12.595448 12.595448v143.707119c0.099177 6.942373-5.553898 12.595448-12.595448 12.595448z" fill="#C0D8D8" p-id="4886"></path><path d="M752.900339 258.256271H299.86092c-4.859661 0-8.925908-3.96707-8.925908-8.925908v-6.843196c0-4.859661 3.96707-8.925908 8.925908-8.925908h453.138596c4.859661 0 8.925908 3.96707 8.925908 8.925908v6.843196c-0.099177 4.958838-4.066247 8.925908-9.025085 8.925908z" fill="#DDE6E7" p-id="4887"></path></svg>