<?xml version="1.0" standalone="no"?><!DOCTYPE svg PUBLIC "-//W3C//DTD SVG 1.1//EN" "http://www.w3.org/Graphics/SVG/1.1/DTD/svg11.dtd"><svg t="1677848116836" class="icon" viewBox="0 0 1024 1024" version="1.1" xmlns="http://www.w3.org/2000/svg" p-id="3712" xmlns:xlink="http://www.w3.org/1999/xlink" width="200" height="200"><path d="M912.96199 426.050076h-791.530836l-62.892287 499.00857h908.006319z" fill="#FFFFFF" p-id="3713"></path><path d="M912.96199 426.050076l53.583196 499.00857H58.538867l62.892287-499.00857h791.530836m46.373382-51.621577H75.900924l-5.69558 45.16888-62.892287 499.00857L0 976.680222h1024l-6.142968-57.127878-53.583196-499.00857-4.938464-46.115275z" fill="#556080" p-id="3714"></path><path d="M235.463216 856.229877c-4.422248 0-8.82729-0.275315-13.23233-0.808738a81.802991 81.802991 0 0 1-11.236297-2.133692 17.207192 17.207192 0 0 1 8.603596-33.313123c2.271349 0.567837 4.542699 1.015224 6.814048 1.290539 6.934498 0.86036 13.955033 0.636666 20.906739-0.258108a17.207192 17.207192 0 1 1 4.301798 34.139069 124.717728 124.717728 0 0 1-16.157554 1.084053z m80.013443-19.925928a17.207192 17.207192 0 0 1-6.211796-33.261502 468.741119 468.741119 0 0 0 30.525559-13.060259 17.207192 17.207192 0 1 1 14.626113 31.145018 508.300454 508.300454 0 0 1-32.745286 13.989447 16.36404 16.36404 0 0 1-6.19459 1.187296zM171.848227 806.501092a17.207192 17.207192 0 0 1-17.103949-15.452058 100.902974 100.902974 0 0 1-0.326936-16.157554c0.395765-8.070173 1.703512-16.209175 3.871618-24.193312a17.138363 17.138363 0 0 1 21.096017-12.113863 17.172778 17.172778 0 0 1 12.113864 21.096018 79.032633 79.032633 0 0 0-2.477836 27.875651c0.963603 9.463956-5.936481 17.89548-15.38323 18.876289-0.619459 0.034414-1.204503 0.068829-1.789548 0.068829z m235.37718-17.189985a17.207192 17.207192 0 0 1-9.395126-31.644026c9.205848-5.970896 18.342867-12.389178 27.187363-19.048361a17.276021 17.276021 0 0 1 24.107276 3.372609 17.241606 17.241606 0 0 1-3.372609 24.107276c-9.49837 7.140985-19.30647 14.023862-29.166191 20.442144a17.189985 17.189985 0 0 1-9.360713 2.770358z m81.889028-62.806251a17.207192 17.207192 0 0 1-10.152244-31.110603c3.596303-2.598286 7.261435-5.162158 11.02981-7.588372 6.487111-4.215762 13.438817-8.207831 20.648631-11.838548a17.207192 17.207192 0 0 1 15.469265 30.749252 185.786053 185.786053 0 0 0-26.877634 16.501698 17.189985 17.189985 0 0 1-10.117828 3.286573z m-274.557957-8.139002a17.207192 17.207192 0 0 1-8.225038-32.315106 77.019392 77.019392 0 0 1 28.288624-8.94774c4.990086-0.567837 10.203865-0.55063 15.331608 0.137657a17.189985 17.189985 0 0 1 14.798185 19.30647 17.103949 17.103949 0 0 1-19.306469 14.798185 27.910066 27.910066 0 0 0-6.98612-0.034414 42.450143 42.450143 0 0 0-15.710167 4.972878 17.207192 17.207192 0 0 1-8.190623 2.08207z m368.818955-31.867719a17.207192 17.207192 0 0 1-3.579096-34.035826 412.800538 412.800538 0 0 1 35.412401-5.88486 16.983499 16.983499 0 0 1 19.186019 14.95305 17.189985 17.189985 0 0 1-14.95305 19.186019c-11.442783 1.428197-22.36935 3.234952-32.452764 5.385851a16.36404 16.36404 0 0 1-3.61351 0.395766z m102.554864-10.616838a17.207192 17.207192 0 0 1-0.688287-34.397177l34.293934-1.410989c9.463956-0.86036 17.551336 6.900084 17.981515 16.415661a17.207192 17.207192 0 0 1-16.415661 17.964308l-34.448799 1.41099-0.722702 0.017207z m102.881802-7.622786a17.207192 17.207192 0 0 1-3.475853-34.07024c9.945757-2.047656 17.310435-4.921257 23.178088-9.033776 7.519543-5.867652 18.962326-4.90405 24.743942 2.563872 5.833238 7.519543 5.093329 17.878273-2.409007 23.71151-0.946396 0.722702-1.892791 1.428197-2.908015 2.099278-9.360712 6.607562-21.147639 11.373954-35.653302 14.368005a17.15557 17.15557 0 0 1-3.475853 0.361351z m70.016064-69.344984a17.207192 17.207192 0 0 1-16.432868-22.300521c0.911981-2.94243 1.479819-5.867652 1.669098-8.706839l0.068828-1.996034c0-3.940447-0.757116-7.949723-2.236935-11.941792a17.189985 17.189985 0 1 1 32.263485-11.958998 68.57066 68.57066 0 0 1 4.250177 28.219795 72.184171 72.184171 0 0 1-3.148916 16.587733 17.207192 17.207192 0 0 1-16.432869 12.096656z m-87.068392-70.669938a17.172778 17.172778 0 0 1-16.536111-12.544043 17.172778 17.172778 0 0 1 11.872962-21.216468 101.832163 101.832163 0 0 1 41.056361-3.097294 17.207192 17.207192 0 0 1 14.746563 19.358091 17.086742 17.086742 0 0 1-19.358091 14.746564 67.968409 67.968409 0 0 0-27.101327 2.08207 16.295211 16.295211 0 0 1-4.680357 0.67108z" fill="#EBBA16" p-id="3715"></path><path d="M702.810553 205.299009C693.793984 136.487447 657.830953 47.319778 516.59432 47.319778c-141.219425 0-177.199664 89.167669-186.216232 157.979231-4.938464 37.718165-2.168106 76.038582 5.678373 113.257738 43.172845 204.645135 149.874643 327.315208 175.117594 354.072391a7.433507 7.433507 0 0 0 10.840531 0c25.242951-26.757184 131.944749-149.427256 175.117593-354.072391 7.863687-37.219156 10.634045-75.539573 5.678374-113.257738z m-186.216233 133.200873a109.196841 109.196841 0 1 1 0-218.376474 109.196841 109.196841 0 0 1 0 218.376474z" fill="#DD352E" p-id="3716"></path><path d="M516.611527 102.916216c-69.706335 0-126.404033 56.697698-126.404032 126.386826 0 69.706335 56.697698 126.404033 126.404032 126.404032s126.404033-56.697698 126.404033-126.404032c-0.017207-69.689128-56.714905-126.386826-126.404033-126.386826z m0 218.376474c-50.709595 0-91.989649-41.262847-91.989648-91.989648s41.262847-91.972442 91.989648-91.972442 91.989649 41.245639 91.989649 91.972442-41.280054 91.989649-91.989649 91.989648z" fill="#B02721" p-id="3717"></path></svg>