<?xml version="1.0" standalone="no"?><!DOCTYPE svg PUBLIC "-//W3C//DTD SVG 1.1//EN" "http://www.w3.org/Graphics/SVG/1.1/DTD/svg11.dtd"><svg t="1677848189633" class="icon" viewBox="0 0 1024 1024" version="1.1" xmlns="http://www.w3.org/2000/svg" p-id="5969" xmlns:xlink="http://www.w3.org/1999/xlink" width="200" height="200"><path d="M384.455111 113.777778H113.777778v796.444444h750.933333V756.963556h-52.337778v100.920888H166.115556V166.115556h218.339555V113.777778z" fill="#37ADDB" p-id="5970"></path><path d="M622.819556 193.422222l99.100444 63.715556-283.648 441.230222-78.848 13.653333-20.252444-77.482666L622.819556 193.422222m-15.815112-72.362666L282.737778 625.777778l38.115555 146.090666 149.048889-25.941333 324.380445-504.263111-187.278223-120.376889z" fill="#37ADDB" p-id="5971"></path><path d="M539.124622 276.297956l28.307911-44.020623 142.290489 91.534223-28.307911 44.020622z" fill="#37ADDB" p-id="5972"></path><path d="M908.174222 696.092444a129.592889 129.592889 0 0 1-96.028444-46.193777 201.159111 201.159111 0 0 1-46.648889-155.079111c7.395556-65.308444 33.450667-104.220444 56.888889-138.581334 20.707556-30.947556 37.091556-55.409778 35.84-94.663111a86.243556 86.243556 0 0 0-68.266667-83.968c-11.377778-2.275556-48.014222-6.826667-64.739555 28.899556l-47.445334-22.072889c21.617778-46.193778 69.745778-68.949333 122.766222-58.026667A139.605333 139.605333 0 0 1 910.222222 259.982222c1.820444 55.978667-21.845333 91.022222-44.714666 125.155556-20.593778 30.833778-41.984 62.691556-47.900445 115.256889a150.300444 150.300444 0 0 0 34.133333 113.777777 77.710222 77.710222 0 0 0 56.888889 28.785778z" fill="#37ADDB" p-id="5973"></path></svg>