<?xml version="1.0" standalone="no"?><!DOCTYPE svg PUBLIC "-//W3C//DTD SVG 1.1//EN" "http://www.w3.org/Graphics/SVG/1.1/DTD/svg11.dtd"><svg t="1677848106614" class="icon" viewBox="0 0 1024 1024" version="1.1" xmlns="http://www.w3.org/2000/svg" p-id="3417" xmlns:xlink="http://www.w3.org/1999/xlink" width="200" height="200"><path d="M512 102.4a153.6 153.6 0 0 0-153.6 153.6v102.4a153.6 153.6 0 1 0 307.2 0V256a153.6 153.6 0 0 0-153.6-153.6z m0-102.4a256 256 0 0 1 256 256v102.4A256 256 0 0 1 256 358.4V256a256 256 0 0 1 256-256zM102.4 921.6h418.1504a51.2 51.2 0 0 1 0 102.4H0v-153.6c0-111.6672 81.3568-204.8 185.344-204.8H563.2a51.2 51.2 0 0 1 0 102.4H185.344C141.2096 768 102.4 812.4416 102.4 870.4v51.2z m746.2912-52.736l-78.848 127.488a51.2 51.2 0 0 1-87.04-53.9136L757.76 821.248a153.6 153.6 0 1 1 90.9312 47.616zM870.4 768a51.2 51.2 0 1 0 0-102.4 51.2 51.2 0 0 0 0 102.4z" fill="#2C6DD2" p-id="3418"></path><path d="M512 102.4a153.6 153.6 0 0 0-153.6 153.6v102.4a153.6 153.6 0 1 0 307.2 0V256a153.6 153.6 0 0 0-153.6-153.6z" fill="#20C997" p-id="3419"></path></svg>