<?xml version="1.0" standalone="no"?><!DOCTYPE svg PUBLIC "-//W3C//DTD SVG 1.1//EN" "http://www.w3.org/Graphics/SVG/1.1/DTD/svg11.dtd"><svg t="1677848174199" class="icon" viewBox="0 0 1042 1024" version="1.1" xmlns="http://www.w3.org/2000/svg" p-id="5586" xmlns:xlink="http://www.w3.org/1999/xlink" width="203.515625" height="200"><path d="M36.878469 573.671078l394.560242-389.910734c49.340673-48.705495 130.09728-48.705495 179.412546 0L1005.360684 573.671078a124.05038 124.05038 0 0 1 12.805201 15.066436 124.647448 124.647448 0 0 0-12.805201-162.262724L610.851257 36.57676c-49.340673-48.769013-130.071873-48.769013-179.412546 0L36.878469 426.47479a124.647448 124.647448 0 0 0-12.703572 162.262724 122.932466 122.932466 0 0 1 12.703572-15.066436z" p-id="5587" fill="#1296db"></path><path d="M922.914502 592.383439l-401.432873-384.156015-401.547206 384.156015h-0.88925v337.33065c0 52.084645 47.955984 94.285911 107.103815 94.285911h172.1334V789.072844h245.725192v234.927156h172.1334c59.147831 0 107.103815-42.21397 107.103815-94.285911V592.383439z" p-id="5588" fill="#1296db"></path></svg>