<?xml version="1.0" standalone="no"?><!DOCTYPE svg PUBLIC "-//W3C//DTD SVG 1.1//EN" "http://www.w3.org/Graphics/SVG/1.1/DTD/svg11.dtd"><svg t="1678079051801" class="icon" viewBox="0 0 1024 1024" version="1.1" xmlns="http://www.w3.org/2000/svg" p-id="21309" xmlns:xlink="http://www.w3.org/1999/xlink" width="200" height="200"><path d="M840.064 160.64l-35.2-12.8a53.077 53.077 0 0 0-51.52-41.173 52.373 52.373 0 0 0-52.352 52.757 52.693 52.693 0 0 0 52.757 52.757c13.59 0 25.984-5.205 35.563-13.994l33.173 11.989c22.4 8 41.963 38.763 41.963 65.152v467.627c0 26.368-19.584 56.746-41.963 64.725l-29.973 10.39a52.48 52.48 0 0 0-38.763-17.174 52.373 52.373 0 0 0-52.352 52.757 52.693 52.693 0 0 0 52.758 52.736 52.224 52.224 0 0 0 49.557-35.968l36.373-12.8c43.563-15.168 77.12-65.536 77.12-114.282V275.712c-0.789-49.152-33.962-99.499-77.12-115.093M280.107 800.896a52.144 52.144 0 0 0-40.768 19.584l-37.974-13.205c-22.4-7.595-42.368-35.158-42.368-58.752V269.739c0-23.595 19.99-51.563 42.368-59.563l40.363-14.379a52.48 52.48 0 0 0 37.973 16 52.693 52.693 0 0 0 52.758-52.778 52.032 52.032 0 0 0-52.352-52.352c-23.979 0-43.563 16-49.963 37.568l-46.357 16.384c-42.774 15.594-77.12 63.552-77.12 109.12v478.784c0 45.568 34.368 93.525 77.525 108.309l47.168 16.384a52.587 52.587 0 0 0 48.768 32.384 52.693 52.693 0 0 0 52.757-52.757c0-28.374-23.594-51.947-52.757-51.947" fill="#347DFF" p-id="21310"></path><path d="M439.595 553.493l67.946-160.256 71.936 160.256H439.595zM659.797 733.76l93.526 0.384-208.64-463.21-77.12 0.789-196.224 462.421 92.309-1.195 40.363-95.125h213.034l42.752 95.915z" fill="#347DFF" p-id="21311"></path></svg>