<?xml version="1.0" standalone="no"?><!DOCTYPE svg PUBLIC "-//W3C//DTD SVG 1.1//EN" "http://www.w3.org/Graphics/SVG/1.1/DTD/svg11.dtd"><svg t="1677848146933" class="icon" viewBox="0 0 1024 1024" version="1.1" xmlns="http://www.w3.org/2000/svg" p-id="4724" xmlns:xlink="http://www.w3.org/1999/xlink" width="200" height="200"><path d="M512.203944 1024a508.631121 508.631121 0 0 1-282.228243-85.556118L53.623152 1021.540262 114.367996 834.172363a511.73253 511.73253 0 0 1 397.835948-834.172149v42.778059a468.954471 468.954471 0 0 0-357.624572 772.67869l7.806995 9.090337L124.42084 941.117511l109.618776-51.333671 10.052844 7.05838a468.954471 468.954471 0 0 0 737.279846-385.002531h42.778059a512.481146 512.481146 0 0 1-511.946421 512.160311z" fill="#282D33" p-id="4725"></path><path d="M1024.150365 512.05358h-42.778059v-20.426524l42.778059-1.925012c-0.21389 7.379215 0 14.865375 0 22.351536zM977.415336 450.77401c-1.818068-13.475089-4.170861-27.057122-7.05838-40.31832l41.815552-9.197283c3.101409 14.54454 5.775038 29.30297 7.700051 43.954455z m-17.64595-79.78108c-4.063916-12.940363-8.769502-25.880726-13.902869-38.500253l39.462759-16.362607c5.668093 13.795924 10.694515 27.912683 15.293156 42.029442z m-31.227983-75.610219a467.991965 467.991965 0 0 0-20.533468-35.398844l36.14746-22.993207c7.913941 12.512582 15.400101 25.452945 22.24459 38.714144z m-43.954455-68.872675c-8.341721-10.694515-17.218169-21.389029-26.308507-31.334928l32.083545-28.87519c9.945899 10.694515 19.677907 22.351536 28.661299 34.115502z m-55.290642-60.317063c-10.052844-9.197283-20.533468-18.07373-31.334928-26.308506L823.628214 105.982855c11.763966 8.983392 23.207097 18.715401 34.222447 28.661299z m-64.808759-49.836439c-11.443131-7.379215-23.314042-14.223705-35.398844-20.105687L748.76661 57.964484c13.154253 6.844489 26.201561 14.33065 38.607199 22.351536zM692.085682 78.497952c-12.512582-5.240312-25.452945-9.945899-38.500253-14.009814l12.940363-40.746101c14.116759 4.384751 28.233519 9.518118 41.922498 15.293156zM614.12267 53.472788c-13.261198-2.887519-26.843232-5.347257-40.318321-7.05838l5.561148-42.778059c14.75843 1.925013 29.516861 4.491696 43.954456 7.700051zM532.737413 42.778273h-20.533469V0.000214h22.244591z" fill="#282D33" p-id="4726"></path><path d="M892.393943 507.134103A389.280336 389.280336 0 1 1 502.792771 117.639876a389.280336 389.280336 0 0 1 389.601172 389.494227z" fill="#34CA9D" p-id="4727"></path><path d="M529.742949 667.979604H427.931168v-42.778059h102.025671a51.761451 51.761451 0 0 0 0-103.522902h-90.689485v-42.778059h90.475595a94.53951 94.53951 0 0 1 0 189.07902z" fill="#282D33" p-id="4728"></path><path d="M504.717784 521.678643h-65.45043v-42.778059h65.45043a40.211375 40.211375 0 0 0 0-80.422751H427.931168v-42.778059h77.000506a82.989434 82.989434 0 0 1 0 165.978869z" fill="#282D33" p-id="4729"></path><path d="M422.797801 356.769226h42.778059V667.337934h-42.778059zM383.335042 667.337934h-42.778059v-224.58481a44.596126 44.596126 0 0 0-89.085308 0v224.58481h-42.778059v-224.58481a87.374185 87.374185 0 0 1 174.641426 0z" fill="#282D33" p-id="4730"></path><path d="M234.253506 474.943613h130.68697v42.778059H234.253506zM728.874813 676.428271a86.732515 86.732515 0 0 1-87.05335-86.625569v-149.723207a86.732515 86.732515 0 1 1 173.465029 0h-42.778059a43.954456 43.954456 0 1 0-87.908911 0v149.723207a43.954456 43.954456 0 0 0 87.908911 0h42.778059a86.732515 86.732515 0 0 1-86.411679 86.625569z" fill="#282D33" p-id="4731"></path></svg>