<?xml version="1.0" standalone="no"?><!DOCTYPE svg PUBLIC "-//W3C//DTD SVG 1.1//EN" "http://www.w3.org/Graphics/SVG/1.1/DTD/svg11.dtd"><svg t="1677848231256" class="icon" viewBox="0 0 1024 1024" version="1.1" xmlns="http://www.w3.org/2000/svg" p-id="7286" xmlns:xlink="http://www.w3.org/1999/xlink" width="200" height="200"><path d="M689.379556 164.882963a90.187852 90.187852 0 0 1 8.51437 162.285037l-161.28 88.310519 14.866963 35.46074-39.803259-21.788444-39.784297 21.807407 14.829037-35.460741-161.242074-88.329481a90.187852 90.187852 0 0 1-20.195555-15.075556l-3.489185-3.678814a90.187852 90.187852 0 1 1 150.205629-95.156149l59.676445 142.620445 59.695407-142.601482a90.187852 90.187852 0 0 1 118.006519-48.393481z" fill="#FD6112" fill-opacity=".5" p-id="7287"></path><path d="M851.493926 351.004444a76.496593 76.496593 0 0 1 8.51437 152.519112v332.61037a75.851852 75.851852 0 0 1-75.851852 75.851852H554.002963V606.01837a34.000593 34.000593 0 0 0-68.001185 0v306.005334H255.848296a75.851852 75.851852 0 0 1-75.851852-75.851852l-0.018963-332.610371a76.515556 76.515556 0 0 1 8.533334-152.538074h662.983111z" fill="#FD6112" p-id="7288"></path></svg>