<?xml version="1.0" standalone="no"?><!DOCTYPE svg PUBLIC "-//W3C//DTD SVG 1.1//EN" "http://www.w3.org/Graphics/SVG/1.1/DTD/svg11.dtd"><svg t="1677848185535" class="icon" viewBox="0 0 1024 1024" version="1.1" xmlns="http://www.w3.org/2000/svg" p-id="5826" xmlns:xlink="http://www.w3.org/1999/xlink" width="200" height="200"><path d="M408.65792 192H768v88.64256H408.65792V192z m0 216.64768H768V497.3056H408.65792V408.64768z" fill="#DE5CF6" p-id="5827"></path><path d="M204.33408 711.59808v-494.9504h63.99488v434.5344h88.65792V88.65792h462.67904v558.83264h88.6528V39.4496A39.4496 39.4496 0 0 0 868.87424 0H307.77344a39.4496 39.4496 0 0 0-39.4496 39.4496v88.56064H155.12576a39.4496 39.4496 0 0 0-39.4496 39.44448v544.14848h-24.6528a39.3472 39.3472 0 0 0-39.35232 39.33184v233.73312a39.33696 39.33696 0 0 0 39.33696 39.33696h841.94816a39.33696 39.33696 0 0 0 39.34208-39.33696v-233.72288a39.33696 39.33696 0 0 0-39.33696-39.34208h-282.99264v140.31872H423.34208v-140.31872H204.33408z" fill="#DE5CF6" p-id="5828"></path></svg>