<?xml version="1.0" standalone="no"?><!DOCTYPE svg PUBLIC "-//W3C//DTD SVG 1.1//EN" "http://www.w3.org/Graphics/SVG/1.1/DTD/svg11.dtd"><svg t="1677848245216" class="icon" viewBox="0 0 1024 1024" version="1.1" xmlns="http://www.w3.org/2000/svg" p-id="7714" xmlns:xlink="http://www.w3.org/1999/xlink" width="200" height="200"><path d="M573.44 481.0752h-8.8064l33.9968 188.928c22.3232-7.8848 42.8032-19.968 60.928-35.84-18.6368-22.3232-33.4848-47.5136-45.1584-74.0352l35.84-4.608c9.728 19.968 20.992 38.1952 33.9968 53.5552 26.5216-32.1536 46.592-74.9568 60.928-128.512L573.44 481.0752z m135.4752 153.088c20.48 17.7152 43.7248 30.72 69.8368 38.6048l16.2816 5.12-9.728 34.9184-16.2816-5.12c-31.232-9.728-60.0064-26.112-84.6848-47.9232-22.8352 20.48-49.7664 36.352-79.1552 46.08l22.8352 127.488H492.032l-18.1248 83.3536h426.8032c19.968 0 36.352-16.2816 36.352-36.352V263.168c0-19.968-16.2816-36.352-36.352-36.352H519.4752L547.84 385.024l-0.9216-0.512 3.2768 17.2032 0.512-2.3552 7.8848 45.1584h87.9616v-36.352h67.9936v36.352h113.5616v36.352h-47.5136c-15.872 63.8976-40.0384 115.0976-71.68 153.2928zM454.7584 832.9216H123.8016C83.7632 832.9216 51.2 800.3584 51.2 760.32V143.5648c0-40.448 32.5632-72.6016 72.6016-72.6016h363.008l22.3232 119.6032H900.096c40.0384 0 72.6016 32.5632 72.6016 72.6016v617.1648c0 40.0384-32.5632 72.6016-72.6016 72.6016H428.6464l26.112-120.0128zM283.4432 553.6768v-38.1952h-71.68v-56.32h66.56v-37.6832h-66.56v-47.9232h71.68V335.872H169.8816v217.8048h113.5616z m175.0016 0V444.7232c0-19.5584-4.608-34.9184-13.5168-45.568s-22.3232-15.872-40.0384-15.872c-10.24 0-19.5584 1.8432-27.4432 6.0416-7.8848 4.1984-14.4384 10.752-18.6368 18.6368h-2.3552l-5.632-21.4016h-31.6416v167.1168h40.96v-78.6432c0-19.5584 2.7648-33.4848 7.8848-42.3936 5.12-8.3968 13.5168-12.5952 25.088-12.5952 8.3968 0 14.4384 2.7648 18.6368 8.8064 3.6864 6.0416 6.0416 14.848 6.0416 27.0336v97.792h40.6528z" fill="#409EFF" p-id="7715"></path></svg>