<?xml version="1.0" standalone="no"?><!DOCTYPE svg PUBLIC "-//W3C//DTD SVG 1.1//EN" "http://www.w3.org/Graphics/SVG/1.1/DTD/svg11.dtd"><svg t="1677848071367" class="icon" viewBox="0 0 1024 1024" version="1.1" xmlns="http://www.w3.org/2000/svg" p-id="2403" xmlns:xlink="http://www.w3.org/1999/xlink" width="200" height="200"><path d="M256 24.064a231.424 231.424 0 0 0 0 460.8h192a38.4 38.4 0 0 0 38.4-36.864V256A231.424 231.424 0 0 0 256 24.064zM409.6 409.6H256a153.6 153.6 0 1 1 153.6-153.6v153.6zM448 537.6H256A231.424 231.424 0 1 0 486.4 768v-192a38.4 38.4 0 0 0-38.4-38.4zM409.6 768a153.6 153.6 0 1 1-153.6-153.6h153.6v153.6zM576 486.4H768A231.424 231.424 0 1 0 537.6 256v192a38.4 38.4 0 0 0 38.4 38.4zM614.4 256a153.6 153.6 0 1 1 153.6 153.6h-153.6V256zM768 537.6h-192a38.4 38.4 0 0 0-38.4 38.4V768a231.424 231.424 0 1 0 230.4-230.4z m0 384a153.6 153.6 0 0 1-153.6-153.6v-153.6h153.6a153.6 153.6 0 0 1 0 307.2z" fill="#1F88D9" p-id="2404"></path></svg>