<?xml version="1.0" standalone="no"?><!DOCTYPE svg PUBLIC "-//W3C//DTD SVG 1.1//EN" "http://www.w3.org/Graphics/SVG/1.1/DTD/svg11.dtd"><svg t="1677848249048" class="icon" viewBox="0 0 1024 1024" version="1.1" xmlns="http://www.w3.org/2000/svg" p-id="7856" xmlns:xlink="http://www.w3.org/1999/xlink" width="200" height="200"><path d="M875.328 427.328L630.624 672H336v-16l11.68 10.944-240 256-23.36-21.888L329.056 640H624v16l-11.328-11.328 240-240 22.656 22.656zM880 416q0 1.6-0.32 3.136t-0.896 2.976q-0.608 1.472-1.472 2.784-0.896 1.28-1.984 2.432-1.12 1.088-2.432 1.984-1.312 0.864-2.784 1.472-1.44 0.608-2.976 0.896-1.568 0.32-3.136 0.32-1.6 0-3.136-0.32t-2.976-0.896q-1.472-0.608-2.784-1.472-1.28-0.896-2.432-1.984-1.088-1.12-1.984-2.432-0.864-1.312-1.472-2.784-0.608-1.44-0.896-2.976-0.32-1.568-0.32-3.136 0-1.6 0.32-3.136t0.896-2.976q0.608-1.472 1.472-2.784 0.896-1.28 1.984-2.432 1.12-1.088 2.432-1.984 1.312-0.864 2.784-1.472 1.44-0.608 2.976-0.896 1.568-0.32 3.136-0.32 1.6 0 3.136 0.32t2.976 0.896q1.472 0.608 2.784 1.472 1.28 0.896 2.432 1.984 1.088 1.12 1.984 2.432 0.864 1.312 1.472 2.784 0.608 1.44 0.896 2.976 0.32 1.568 0.32 3.136z m-768 496q0 1.6-0.32 3.136t-0.896 2.976q-0.608 1.472-1.472 2.784-0.896 1.28-1.984 2.432-1.12 1.088-2.432 1.984-1.312 0.864-2.784 1.472-1.44 0.608-2.976 0.896Q97.568 928 96 928q-1.6 0-3.136-0.32t-2.976-0.896q-1.472-0.608-2.784-1.472-1.28-0.896-2.432-1.984-1.088-1.12-1.984-2.432-0.864-1.312-1.472-2.784-0.608-1.44-0.896-2.976-0.32-1.568-0.32-3.136 0-1.6 0.32-3.136t0.896-2.976q0.608-1.472 1.472-2.784 0.896-1.28 1.984-2.432 1.12-1.088 2.432-1.984 1.312-0.864 2.784-1.472 1.44-0.608 2.976-0.896Q94.432 896 96 896q1.6 0 3.136 0.32t2.976 0.896q1.472 0.608 2.784 1.472 1.28 0.896 2.432 1.984 1.088 1.12 1.984 2.432 0.864 1.312 1.472 2.784 0.608 1.44 0.896 2.976 0.32 1.568 0.32 3.136z" fill="#1F4690" p-id="7857"></path><path d="M873.6 654.656l-256-112 6.4-14.656v16h-288v-16l6.4 14.656-256 112-12.8-29.312L332.64 512h294.72l259.04 113.344-12.8 29.312zM896 640q0 1.6-0.32 3.136t-0.896 2.976q-0.608 1.472-1.472 2.784-0.896 1.28-1.984 2.432-1.12 1.088-2.432 1.984-1.312 0.864-2.784 1.472-1.44 0.608-2.976 0.896-1.568 0.32-3.136 0.32-1.6 0-3.136-0.32t-2.976-0.896q-1.472-0.608-2.784-1.472-1.28-0.896-2.432-1.984-1.088-1.12-1.984-2.432-0.864-1.312-1.472-2.784-0.608-1.44-0.896-2.976Q864 641.568 864 640q0-1.6 0.32-3.136t0.896-2.976q0.608-1.472 1.472-2.784 0.896-1.28 1.984-2.432 1.12-1.088 2.432-1.984 1.312-0.864 2.784-1.472 1.44-0.608 2.976-0.896 1.568-0.32 3.136-0.32 1.6 0 3.136 0.32t2.976 0.896q1.472 0.608 2.784 1.472 1.28 0.896 2.432 1.984 1.088 1.12 1.984 2.432 0.864 1.312 1.472 2.784 0.608 1.44 0.896 2.976 0.32 1.568 0.32 3.136zM96 640q0 1.6-0.32 3.136t-0.896 2.976q-0.608 1.472-1.472 2.784-0.896 1.28-1.984 2.432-1.12 1.088-2.432 1.984-1.312 0.864-2.784 1.472-1.44 0.608-2.976 0.896-1.568 0.32-3.136 0.32-1.6 0-3.136-0.32t-2.976-0.896q-1.472-0.608-2.784-1.472-1.28-0.896-2.432-1.984-1.088-1.12-1.984-2.432-0.864-1.312-1.472-2.784-0.608-1.44-0.896-2.976Q64 641.568 64 640q0-1.6 0.32-3.136t0.896-2.976q0.608-1.472 1.472-2.784 0.896-1.28 1.984-2.432 1.12-1.088 2.432-1.984 1.312-0.864 2.784-1.472 1.44-0.608 2.976-0.896 1.568-0.32 3.136-0.32 1.6 0 3.136 0.32t2.976 0.896q1.472 0.608 2.784 1.472 1.28 0.896 2.432 1.984 1.088 1.12 1.984 2.432 0.864 1.312 1.472 2.784 0.608 1.44 0.896 2.976 0.32 1.568 0.32 3.136z" fill="#FFA500" p-id="7858"></path><path d="M416 368q0 44.16-80 128-80-83.84-80-128a80 80 0 0 1 160 0z" fill="#3A5BA0" p-id="7859"></path><path d="M928 240q0 44.16-80 128-80-83.84-80-128a80 80 0 0 1 160 0z" fill="#FFA500" p-id="7860"></path></svg>