<?xml version="1.0" standalone="no"?><!DOCTYPE svg PUBLIC "-//W3C//DTD SVG 1.1//EN" "http://www.w3.org/Graphics/SVG/1.1/DTD/svg11.dtd"><svg t="1677848220259" class="icon" viewBox="0 0 1024 1024" version="1.1" xmlns="http://www.w3.org/2000/svg" p-id="6997" xmlns:xlink="http://www.w3.org/1999/xlink" width="200" height="200"><path d="M459.185231 39.463385l-3.938462 4.489846c-16.502154 18.904615-32.571077 37.888-48.324923 57.107692a2756.017231 2756.017231 0 0 0-114.057846 148.086154A1803.894154 1803.894154 0 0 0 212.676923 370.727385C150.252308 475.254154 118.153846 559.537231 118.153846 628.499692 118.153846 846.769231 294.4 1024 512 1024s393.846154-177.191385 393.846154-395.500308c0-68.923077-32.098462-153.206154-94.523077-257.772307a1823.035077 1823.035077 0 0 0-80.068923-121.462154 2789.415385 2789.415385 0 0 0-114.136616-148.243693l-18.668307-22.44923L564.736 39.384615a70.734769 70.734769 0 0 0-105.550769 0.07877z m31.744 83.849846L512 98.697846l7.955692 9.137231a2709.779692 2709.779692 0 0 1 147.219693 187.234461 1744.344615 1744.344615 0 0 1 76.524307 116.105847C799.507692 504.516923 827.076923 576.984615 827.076923 628.499692 827.076923 803.406769 686.001231 945.230769 512 945.230769s-315.076923-141.824-315.076923-316.731077c0-51.475692 27.608615-123.982769 83.377231-217.363692A1725.44 1725.44 0 0 1 356.903385 294.990769a2677.366154 2677.366154 0 0 1 110.788923-143.832615l23.236923-27.844923z" fill="#2DCC6F" p-id="6998"></path><path d="M945.230769 905.846154m-78.769231 0a78.769231 78.769231 0 1 0 157.538462 0 78.769231 78.769231 0 1 0-157.538462 0Z" fill="#CAFFE0" p-id="6999"></path><path d="M177.230769 177.230769m-59.076923 0a59.076923 59.076923 0 1 0 118.153846 0 59.076923 59.076923 0 1 0-118.153846 0Z" fill="#CAFFE0" p-id="7000"></path><path d="M275.692308 653.508923c0-95.862154 113.112615-70.459077 236.307692 0 123.195077 70.419692 236.307692-95.862154 236.307692 0C748.307692 749.410462 634.249846 827.076923 520.428308 827.076923 406.606769 827.076923 275.692308 749.410462 275.692308 653.508923z" fill="#2DCC6F" p-id="7001"></path></svg>